<svg viewBox="751 1036 1406 994" fill="none" xmlns="http://www.w3.org/2000/svg">
<rect x="751" y="1320" width="507" height="100" fill="#4F46E5"/>
<rect x="751" y="1470" width="608" height="100" fill="#22C55E"/>
<rect width="315.673" height="100.704" transform="matrix(0.722618 -0.691248 0.701548 0.712623 1287.94 1498.21)" fill="#22C55E"/>
<rect width="315.569" height="100.737" transform="matrix(0.706632 0.707582 -0.717653 0.6964 1516.46 1280)" fill="#22C55E"/>
<rect width="541.602" height="100.687" transform="matrix(-0.730511 0.682901 -0.693305 -0.720644 2063.82 1201.31)" fill="#22C55E"/>
<rect x="751" y="1620" width="507" height="100" fill="#4F46E5"/>
<path d="M2157.03 1036.95L2113.76 1270.56L1919.82 1078.39L2157.03 1036.95Z" fill="#22C55E"/>
<path d="M885.541 1938.67H794.135V2027H752.826V1813.72H896.967V1847.26H794.135V1905.27H885.541V1938.67ZM942.67 1868.5H1028.95V1993.89H1071.87V2027H942.67V1993.89H987.787V1901.76H942.67V1868.5ZM984.857 1827.93C984.857 1824.8 985.395 1821.92 986.469 1819.29C987.641 1816.55 989.252 1814.21 991.303 1812.25C993.354 1810.4 995.795 1808.93 998.627 1807.86C1001.56 1806.79 1004.78 1806.25 1008.29 1806.25C1015.52 1806.25 1021.23 1808.3 1025.43 1812.4C1029.73 1816.4 1031.88 1821.58 1031.88 1827.93C1031.88 1834.28 1029.73 1839.5 1025.43 1843.6C1021.23 1847.61 1015.52 1849.61 1008.29 1849.61C1004.78 1849.61 1001.56 1849.07 998.627 1848C995.795 1846.92 993.354 1845.41 991.303 1843.46C989.252 1841.6 987.641 1839.35 986.469 1836.72C985.395 1833.98 984.857 1831.05 984.857 1827.93ZM1112.01 2027V1868.5H1148.92L1151.41 1890.48C1153.46 1887.55 1155.71 1884.86 1158.15 1882.42C1160.59 1879.98 1163.18 1877.78 1165.91 1875.83C1170.6 1872.51 1175.73 1869.97 1181.29 1868.21C1186.86 1866.45 1192.77 1865.57 1199.02 1865.57C1207.03 1865.57 1214.35 1866.75 1220.99 1869.09C1227.63 1871.43 1233.39 1875.14 1238.28 1880.22C1243.06 1885.4 1246.77 1892.04 1249.41 1900.14C1252.14 1908.15 1253.51 1917.92 1253.51 1929.44V2027H1212.79V1930.03C1212.79 1923.78 1212.05 1918.65 1210.59 1914.65C1209.22 1910.54 1207.22 1907.32 1204.58 1904.98C1201.95 1902.63 1198.77 1901.02 1195.06 1900.14C1191.35 1899.17 1187.15 1898.68 1182.46 1898.68C1178.56 1898.68 1174.95 1899.12 1171.62 1900C1168.4 1900.88 1165.52 1902.2 1162.98 1903.95C1160.93 1905.22 1159.08 1906.74 1157.42 1908.49C1155.76 1910.25 1154.24 1912.21 1152.88 1914.35V2027H1112.01Z" fill="#4F46E5"/>
<path d="M1334.52 1948.78V2027H1293.35V1813.72H1366.3C1377.92 1813.72 1388.42 1815.43 1397.8 1818.85C1407.17 1822.17 1415.18 1826.8 1421.82 1832.76C1428.36 1838.82 1433.39 1846.04 1436.91 1854.44C1440.52 1862.84 1442.33 1872.17 1442.33 1882.42C1442.33 1891.99 1440.52 1900.83 1436.91 1908.93C1433.39 1917.04 1428.36 1924.02 1421.82 1929.88C1415.18 1935.84 1407.17 1940.48 1397.8 1943.8C1388.42 1947.12 1377.92 1948.78 1366.3 1948.78H1334.52ZM1334.52 1915.38H1366.3C1372.16 1915.38 1377.24 1914.5 1381.54 1912.74C1385.83 1910.98 1389.45 1908.59 1392.38 1905.56C1395.21 1902.54 1397.31 1899.07 1398.68 1895.16C1400.14 1891.16 1400.87 1887.01 1400.87 1882.71C1400.87 1877.73 1400.14 1873.09 1398.68 1868.8C1397.31 1864.5 1395.21 1860.74 1392.38 1857.52C1389.45 1854.29 1385.83 1851.76 1381.54 1849.9C1377.24 1848.04 1372.16 1847.12 1366.3 1847.12H1334.52V1915.38ZM1575.78 2027L1573.43 2004.73C1568.06 2012.64 1561.57 2018.85 1553.95 2023.34C1546.43 2027.83 1538.18 2030.08 1529.19 2030.08C1520.99 2030.08 1513.47 2028.81 1506.63 2026.27C1499.8 2023.73 1493.94 2019.68 1489.06 2014.11C1484.17 2008.64 1480.37 2001.66 1477.63 1993.16C1474.99 1984.57 1473.68 1974.27 1473.68 1962.25V1868.5H1514.4V1962.55C1514.4 1968.99 1514.84 1974.41 1515.72 1978.81C1516.69 1983.2 1518.21 1986.72 1520.26 1989.35C1522.31 1992.09 1524.99 1994.04 1528.31 1995.21C1531.63 1996.38 1535.69 1996.97 1540.47 1996.97C1544.77 1996.97 1548.63 1996.53 1552.04 1995.65C1555.56 1994.77 1558.64 1993.5 1561.27 1991.84C1563.52 1990.38 1565.52 1988.62 1567.28 1986.57C1569.04 1984.52 1570.55 1982.22 1571.82 1979.69V1868.5H1612.69V2027H1575.78ZM1661.03 1802H1749.65V1993.89H1795.06V2027H1661.03V1993.89H1708.49V1835.25H1661.03V1802ZM1934.96 1983.49C1934.96 1981.05 1934.37 1978.9 1933.2 1977.05C1932.12 1975.19 1930.17 1973.44 1927.34 1971.78C1924.41 1970.21 1920.55 1968.75 1915.77 1967.38C1910.98 1966.01 1904.93 1964.65 1897.6 1963.28C1888.32 1961.42 1879.83 1959.13 1872.11 1956.39C1864.5 1953.56 1857.95 1950.14 1852.48 1946.14C1847.02 1942.23 1842.72 1937.69 1839.59 1932.52C1836.57 1927.34 1835.05 1921.38 1835.05 1914.65C1835.05 1908.1 1836.62 1901.85 1839.74 1895.9C1842.87 1889.94 1847.36 1884.71 1853.22 1880.22C1859.08 1875.73 1866.21 1872.17 1874.6 1869.53C1883 1866.89 1892.47 1865.57 1903.02 1865.57C1914.06 1865.57 1923.97 1866.89 1932.76 1869.53C1941.55 1872.07 1949.02 1875.58 1955.17 1880.08C1961.22 1884.67 1965.86 1890.09 1969.09 1896.34C1972.31 1902.59 1973.92 1909.37 1973.92 1916.7H1933.2C1933.2 1914.06 1932.76 1911.62 1931.88 1909.37C1931 1907.03 1929.68 1904.93 1927.92 1903.07C1925.48 1900.63 1922.16 1898.68 1917.96 1897.21C1913.86 1895.75 1908.88 1895.02 1903.02 1895.02C1898.04 1895.02 1893.7 1895.51 1889.98 1896.48C1886.27 1897.46 1883.25 1898.83 1880.9 1900.58C1878.75 1902.15 1877.09 1904 1875.92 1906.15C1874.85 1908.2 1874.31 1910.4 1874.31 1912.74C1874.31 1915.09 1874.8 1917.28 1875.78 1919.33C1876.75 1921.29 1878.51 1923.04 1881.05 1924.61C1883.49 1926.27 1886.86 1927.78 1891.16 1929.15C1895.45 1930.42 1900.92 1931.54 1907.56 1932.52C1917.13 1934.08 1926.02 1936.08 1934.22 1938.52C1942.43 1940.96 1949.51 1944.09 1955.46 1947.9C1961.42 1951.8 1966.06 1956.54 1969.38 1962.11C1972.8 1967.58 1974.51 1974.12 1974.51 1981.74C1974.51 1988.77 1972.8 1995.26 1969.38 2001.22C1966.06 2007.08 1961.32 2012.16 1955.17 2016.45C1948.92 2020.75 1941.4 2024.12 1932.61 2026.56C1923.82 2028.9 1914.01 2030.08 1903.17 2030.08C1891.25 2030.08 1880.71 2028.51 1871.53 2025.39C1862.45 2022.26 1854.83 2018.16 1848.68 2013.08C1842.52 2008.1 1837.84 2002.44 1834.61 1996.09C1831.49 1989.65 1829.93 1983.2 1829.93 1976.76H1868.74C1869.04 1981.05 1870.21 1984.76 1872.26 1987.89C1874.31 1990.92 1876.95 1993.36 1880.17 1995.21C1883.39 1997.17 1887.05 1998.58 1891.16 1999.46C1895.36 2000.34 1899.65 2000.78 1904.05 2000.78C1909.32 2000.78 1913.91 2000.34 1917.82 1999.46C1921.82 1998.48 1925.09 1997.21 1927.63 1995.65C1930.07 1994.09 1931.88 1992.28 1933.05 1990.23C1934.32 1988.18 1934.96 1985.94 1934.96 1983.49ZM2089.79 2029.93C2077.58 2029.93 2066.5 2027.93 2056.54 2023.92C2046.58 2019.92 2038.03 2014.45 2030.9 2007.52C2023.77 2000.68 2018.26 1992.62 2014.35 1983.35C2010.54 1973.97 2008.64 1963.96 2008.64 1953.32V1947.46C2008.64 1935.35 2010.54 1924.31 2014.35 1914.35C2018.16 1904.29 2023.48 1895.65 2030.32 1888.43C2037.15 1881.2 2045.26 1875.58 2054.63 1871.58C2064.01 1867.58 2074.21 1865.57 2085.25 1865.57C2096.67 1865.57 2106.83 1867.48 2115.72 1871.29C2124.7 1875 2132.32 1880.27 2138.57 1887.11C2144.72 1893.94 2149.41 1902.2 2152.63 1911.86C2155.85 1921.43 2157.46 1932.03 2157.46 1943.65V1960.94H2049.95V1961.38C2051.31 1967.72 2053.07 1972.85 2055.22 1976.76C2057.37 1980.56 2060.25 1984.03 2063.86 1987.16C2067.57 1990.38 2071.82 1992.87 2076.61 1994.63C2081.39 1996.38 2086.62 1997.26 2092.28 1997.26C2100.29 1997.26 2108.05 1995.75 2115.57 1992.72C2123.09 1989.7 2129.19 1985.15 2133.88 1979.1L2154.24 2001.07C2149.07 2008.4 2140.86 2015.04 2129.63 2020.99C2118.4 2026.95 2105.12 2029.93 2089.79 2029.93ZM2084.96 1898.53C2080.37 1898.53 2076.17 1899.36 2072.36 1901.02C2068.55 1902.59 2065.23 1904.88 2062.4 1907.91C2059.47 1910.94 2057.03 1914.55 2055.07 1918.75C2053.12 1922.95 2051.65 1927.63 2050.68 1932.81H2117.47V1929.59C2117.47 1925.29 2116.69 1921.24 2115.13 1917.43C2113.57 1913.62 2111.42 1910.3 2108.69 1907.47C2105.95 1904.73 2102.58 1902.59 2098.58 1901.02C2094.67 1899.36 2090.13 1898.53 2084.96 1898.53Z" fill="#22C55E"/>
</svg>
